<svg width="10" height="13" viewBox="0 0 10 13" fill="none" xmlns="http://www.w3.org/2000/svg">
<path d="M0.654 12.5V11.348V10.756C0.654 10.1693 0.763333 9.66267 0.982 9.236C1.20067 8.804 1.48867 8.43067 1.846 8.116C2.20867 7.796 2.60333 7.516 3.03 7.276C3.462 7.036 3.894 6.80933 4.326 6.596C4.758 6.38267 5.15267 6.16933 5.51 5.956C5.87267 5.73733 6.16333 5.49467 6.382 5.228C6.60067 4.96133 6.71 4.64667 6.71 4.284C6.71 3.82 6.54733 3.44133 6.222 3.148C5.902 2.85467 5.462 2.708 4.902 2.708C4.32067 2.708 3.82733 2.876 3.422 3.212C3.01667 3.548 2.766 4.05467 2.67 4.732H0.438C0.448667 3.996 0.619333 3.32933 0.95 2.732C1.286 2.12933 1.78733 1.652 2.454 1.3C3.12067 0.947999 3.958 0.771999 4.966 0.771999C5.83 0.771999 6.574 0.918666 7.198 1.212C7.82733 1.50533 8.31267 1.91333 8.654 2.436C8.99533 2.95867 9.166 3.56933 9.166 4.268C9.166 4.84933 9.05933 5.35067 8.846 5.772C8.63267 6.19333 8.35 6.55333 7.998 6.852C7.646 7.15067 7.25933 7.412 6.838 7.636C6.41667 7.86 5.99533 8.068 5.574 8.26C5.158 8.452 4.774 8.64933 4.422 8.852C4.07 9.04933 3.78733 9.27333 3.574 9.524C3.36067 9.77467 3.254 10.076 3.254 10.428V10.532H9.15V12.5H0.654Z" fill="#9F9F9F"/>
</svg>
