<svg width="11" height="13" viewBox="0 0 11 13" fill="none" xmlns="http://www.w3.org/2000/svg">
<path d="M1.026 4.492C1.026 3.66 1.22067 2.96933 1.61 2.42C2.00467 1.87067 2.53533 1.46 3.202 1.188C3.86867 0.910666 4.61 0.771999 5.426 0.771999C6.29 0.771999 7.058 0.884 7.73 1.108C8.40733 1.332 8.94067 1.67333 9.33 2.132C9.71933 2.59067 9.914 3.172 9.914 3.876C9.914 4.44667 9.74867 4.95067 9.418 5.388C9.08733 5.82 8.54867 6.164 7.802 6.42C8.22867 6.53733 8.62333 6.716 8.986 6.956C9.34867 7.196 9.63933 7.50267 9.858 7.876C10.0767 8.24933 10.186 8.69733 10.186 9.22C10.186 9.78533 10.0607 10.284 9.81 10.716C9.55933 11.148 9.21267 11.5107 8.77 11.804C8.32733 12.0973 7.81533 12.316 7.234 12.46C6.65267 12.604 6.03133 12.676 5.37 12.676C4.442 12.6707 3.65 12.5187 2.994 12.22C2.34333 11.916 1.842 11.484 1.49 10.924C1.14333 10.364 0.964667 9.69733 0.954 8.924H3.202C3.314 9.58 3.57 10.0547 3.97 10.348C4.37 10.6413 4.84467 10.788 5.394 10.788C5.874 10.788 6.28467 10.7187 6.626 10.58C6.97267 10.4413 7.23667 10.2493 7.418 10.004C7.60467 9.75333 7.698 9.468 7.698 9.148C7.698 8.81733 7.602 8.532 7.41 8.292C7.22333 8.052 6.962 7.86533 6.626 7.732C6.29 7.59333 5.906 7.51867 5.474 7.508L4.37 7.468V5.612L5.362 5.556C5.778 5.54 6.14067 5.46267 6.45 5.324C6.75933 5.18533 6.99933 5.00133 7.17 4.772C7.346 4.53733 7.434 4.27333 7.434 3.98C7.434 3.69733 7.346 3.452 7.17 3.244C6.994 3.036 6.75133 2.87333 6.442 2.756C6.13267 2.63867 5.778 2.58 5.378 2.58C5.01 2.58 4.67133 2.64133 4.362 2.764C4.05267 2.88667 3.79933 3.08933 3.602 3.372C3.40467 3.64933 3.29 4.02267 3.258 4.492H1.026Z" fill="#9F9F9F"/>
</svg>
