<svg width="24" height="25" viewBox="0 0 24 25" fill="none" xmlns="http://www.w3.org/2000/svg">
<path fill-rule="evenodd" clip-rule="evenodd" d="M19.3641 5.13599C20.1449 5.91699 20.1449 7.18299 19.3641 7.96399C20.2368 10.4014 19.693 13.1215 17.9501 15.036L15.8281 17.156C15.0444 18.1556 14.782 19.4679 15.1211 20.692L3.80811 9.37999C5.03186 9.71877 6.34378 9.45638 7.34311 8.67299L9.46411 6.54999C11.3786 4.80712 14.0987 4.26326 16.5361 5.13599C17.3171 4.35522 18.5831 4.35522 19.3641 5.13599V5.13599Z" stroke="#4B465C" stroke-width="1.75" stroke-linecap="round" stroke-linejoin="round"/>
<path fill-rule="evenodd" clip-rule="evenodd" d="M19.3641 5.13599C20.1449 5.91699 20.1449 7.18299 19.3641 7.96399C20.2368 10.4014 19.693 13.1215 17.9501 15.036L15.8281 17.156C15.0444 18.1556 14.782 19.4679 15.1211 20.692L3.80811 9.37999C5.03186 9.71877 6.34378 9.45638 7.34311 8.67299L9.46411 6.54999C11.3786 4.80712 14.0987 4.26326 16.5361 5.13599C17.3171 4.35522 18.5831 4.35522 19.3641 5.13599V5.13599Z" stroke="white" stroke-opacity="0.2" stroke-width="1.75" stroke-linecap="round" stroke-linejoin="round"/>
<path d="M7.34308 12.914L6.63608 13.621C5.46441 14.7927 5.46441 16.6923 6.63608 17.864C7.80775 19.0357 9.70741 19.0357 10.8791 17.864L11.5861 17.157" stroke="#4B465C" stroke-width="1.75" stroke-linecap="round" stroke-linejoin="round"/>
<path d="M7.34308 12.914L6.63608 13.621C5.46441 14.7927 5.46441 16.6923 6.63608 17.864C7.80775 19.0357 9.70741 19.0357 10.8791 17.864L11.5861 17.157" stroke="white" stroke-opacity="0.2" stroke-width="1.75" stroke-linecap="round" stroke-linejoin="round"/>
</svg>
