<svg width="160" height="46" viewBox="0 0 160 46" fill="none" xmlns="http://www.w3.org/2000/svg">
<rect x="0.5" y="0.5" width="159" height="45" rx="7.5" fill="white"/>
<rect x="0.5" y="0.5" width="159" height="45" rx="7.5" stroke="#D3D3D3"/>
<path d="M55.2 28.5V21.684C55.2 21.14 55.2907 20.7133 55.472 20.404C55.664 20.0947 55.9253 19.8813 56.256 19.764C56.5867 19.636 56.9653 19.572 57.392 19.572C57.6907 19.572 57.9573 19.604 58.192 19.668C58.4267 19.7213 58.6187 19.7853 58.768 19.86L58.448 21.428C58.3627 21.4067 58.2773 21.3907 58.192 21.38C58.1067 21.3693 58.0373 21.364 57.984 21.364C57.7813 21.364 57.6373 21.4173 57.552 21.524C57.4773 21.6307 57.44 21.7853 57.44 21.988V23.476C57.44 23.7427 57.4293 24.0627 57.408 24.436C57.3867 24.7987 57.3493 25.2573 57.296 25.812H57.376C57.5893 25.3107 57.776 24.9107 57.936 24.612C58.1067 24.3027 58.256 24.0307 58.384 23.796L58.976 22.724H59.872L60.464 23.796C60.6133 24.052 60.7413 24.2867 60.848 24.5C60.9547 24.7027 61.056 24.9053 61.152 25.108C61.248 25.3107 61.3547 25.5453 61.472 25.812H61.552C61.4987 25.2573 61.4613 24.7987 61.44 24.436C61.4187 24.0627 61.408 23.7427 61.408 23.476V19.732H63.648V28.5H61.36L59.456 25.012H59.392L57.488 28.5H55.2ZM56.3299 18.516V17.508L57.9459 16.836H63.6579V18.516H56.3299ZM69.1783 28.66C68.3143 28.66 67.6263 28.4733 67.1143 28.1C66.6023 27.716 66.2343 27.1933 66.0103 26.532C65.7863 25.86 65.6743 25.092 65.6743 24.228C65.6743 23.3 65.7756 22.532 65.9783 21.924C66.1916 21.3053 66.4903 20.8253 66.8743 20.484C67.2583 20.132 67.7116 19.8867 68.2343 19.748C68.7676 19.5987 69.3489 19.524 69.9783 19.524C70.9383 19.524 71.7063 19.6573 72.2823 19.924C72.8583 20.1907 73.2743 20.5693 73.5303 21.06C73.7969 21.5507 73.9303 22.1267 73.9303 22.788V28.5H71.5303V22.98C71.5303 22.4787 71.4076 22.1 71.1623 21.844C70.9276 21.5773 70.5329 21.444 69.9783 21.444C69.6049 21.444 69.2743 21.524 68.9863 21.684C68.7089 21.8333 68.4903 22.1053 68.3303 22.5C68.1809 22.8947 68.1063 23.46 68.1063 24.196C68.1063 24.6973 68.1543 25.14 68.2503 25.524C68.3463 25.908 68.5009 26.2067 68.7143 26.42C68.9383 26.6333 69.2369 26.74 69.6102 26.74C69.7276 26.74 69.8396 26.7347 69.9463 26.724C70.0636 26.7027 70.1649 26.6813 70.2503 26.66L70.4743 28.452C70.3036 28.5267 70.0956 28.58 69.8503 28.612C69.6156 28.644 69.3916 28.66 69.1783 28.66ZM80.1189 28.708C78.7322 28.708 77.7242 28.388 77.0949 27.748C76.4762 27.0973 76.1669 26.1587 76.1669 24.932V19.732H78.5669V25.06C78.5669 25.6253 78.6895 26.0573 78.9349 26.356C79.1909 26.644 79.5855 26.788 80.1189 26.788C80.6522 26.788 81.0415 26.644 81.2869 26.356C81.5429 26.0573 81.6709 25.6253 81.6709 25.06V16.58H84.0709V24.932C84.0709 26.1587 83.7562 27.0973 83.1269 27.748C82.5082 28.388 81.5055 28.708 80.1189 28.708ZM86.2431 28.5V25.828C86.2431 25.156 86.3765 24.6387 86.6431 24.276C86.9098 23.9133 87.2885 23.6573 87.7791 23.508L87.7951 23.444L86.0831 22.82V22.404C86.0831 21.8813 86.2378 21.4013 86.5471 20.964C86.8565 20.5267 87.3098 20.18 87.9071 19.924C88.5151 19.6573 89.2511 19.524 90.1151 19.524C90.9258 19.524 91.6245 19.652 92.2111 19.908C92.7978 20.1533 93.2511 20.5267 93.5711 21.028C93.9018 21.5187 94.0671 22.1427 94.0671 22.9V28.5H91.6671V23.044C91.6671 22.5107 91.5231 22.1107 91.2351 21.844C90.9578 21.5773 90.5631 21.444 90.0511 21.444C89.5605 21.444 89.1925 21.5507 88.9471 21.764C88.7018 21.9667 88.5685 22.2173 88.5471 22.516L89.9711 23.172L89.7951 24.212C89.4111 24.2333 89.1231 24.372 88.9311 24.628C88.7391 24.884 88.6431 25.2307 88.6431 25.668V28.5H86.2431ZM99.6515 28.66C98.7022 28.66 97.9608 28.468 97.4275 28.084C96.9048 27.6893 96.5368 27.1453 96.3235 26.452C96.1208 25.748 96.0195 24.932 96.0195 24.004C96.0195 22.9693 96.1208 22.1267 96.3235 21.476C96.5262 20.8253 96.8302 20.3453 97.2355 20.036C97.6515 19.7267 98.1582 19.572 98.7555 19.572C99.1288 19.572 99.4542 19.6467 99.7315 19.796C100.02 19.9347 100.249 20.196 100.42 20.58H100.484C100.633 20.1853 100.878 19.9187 101.22 19.78C101.561 19.6413 101.929 19.572 102.324 19.572C103.06 19.572 103.609 19.7693 103.972 20.164C104.345 20.5587 104.532 21.1347 104.532 21.892V28.5H102.132V22.34C102.132 22.0093 102.078 21.7853 101.972 21.668C101.865 21.5507 101.721 21.492 101.54 21.492C101.337 21.492 101.182 21.5507 101.076 21.668C100.98 21.7853 100.916 21.9827 100.884 22.26H99.9395C99.8968 21.9507 99.8168 21.748 99.6995 21.652C99.5822 21.5453 99.4435 21.492 99.2835 21.492C99.0168 21.492 98.8088 21.684 98.6595 22.068C98.5208 22.452 98.4515 23.1027 98.4515 24.02C98.4515 24.6173 98.4942 25.1293 98.5795 25.556C98.6755 25.972 98.8355 26.292 99.0595 26.516C99.2835 26.7293 99.6035 26.836 100.02 26.836C100.148 26.836 100.265 26.8307 100.372 26.82C100.478 26.7987 100.569 26.772 100.644 26.74L100.884 28.452C100.713 28.5267 100.526 28.58 100.324 28.612C100.121 28.644 99.8968 28.66 99.6515 28.66ZM96.8299 18.516V17.508L98.4459 16.836H104.158V18.516H96.8299Z" fill="#9F9F9F"/>
</svg>
