<svg width="44" height="44" viewBox="0 0 44 44" fill="none" xmlns="http://www.w3.org/2000/svg">
<rect width="44" height="44" rx="8" fill="#F1F1F1"/>
<path d="M30.9999 13L24.4999 31C24.4104 31.1955 24.215 31.3209 23.9999 31.3209C23.7849 31.3209 23.5895 31.1955 23.4999 31L19.9999 24L12.9999 20.5C12.8044 20.4104 12.6791 20.2151 12.6791 20C12.6791 19.7849 12.8044 19.5896 12.9999 19.5L30.9999 13" stroke="#4B465C" stroke-width="1.75" stroke-linecap="round" stroke-linejoin="round"/>
<path d="M30.9999 13L24.4999 31C24.4104 31.1955 24.215 31.3209 23.9999 31.3209C23.7849 31.3209 23.5895 31.1955 23.4999 31L19.9999 24L12.9999 20.5C12.8044 20.4104 12.6791 20.2151 12.6791 20C12.6791 19.7849 12.8044 19.5896 12.9999 19.5L30.9999 13" stroke="white" stroke-opacity="0.2" stroke-width="1.75" stroke-linecap="round" stroke-linejoin="round"/>
</svg>
