<svg width="17" height="14" viewBox="0 0 17 14" fill="none" xmlns="http://www.w3.org/2000/svg">
<path d="M5.61872 5.61872C5.96043 5.27701 5.96043 4.72299 5.61872 4.38128C5.27701 4.03957 4.72299 4.03957 4.38128 4.38128L5.61872 5.61872ZM1 9L0.381282 8.38128C0.0395728 8.72299 0.0395728 9.27701 0.381282 9.61872L1 9ZM4.38128 13.6187C4.72299 13.9604 5.27701 13.9604 5.61872 13.6187C5.96043 13.277 5.96043 12.723 5.61872 12.3813L4.38128 13.6187ZM1 8.125C0.516751 8.125 0.125 8.51675 0.125 9C0.125 9.48325 0.516751 9.875 1 9.875V8.125ZM11 0.125C10.5168 0.125 10.125 0.516751 10.125 1C10.125 1.48325 10.5168 1.875 11 1.875V0.125ZM4.38128 4.38128L0.381282 8.38128L1.61872 9.61872L5.61872 5.61872L4.38128 4.38128ZM0.381282 9.61872L4.38128 13.6187L5.61872 12.3813L1.61872 8.38128L0.381282 9.61872ZM1 9.875H12V8.125H1V9.875ZM12 9.875C14.6924 9.875 16.875 7.69239 16.875 5H15.125C15.125 6.72589 13.7259 8.125 12 8.125V9.875ZM16.875 5C16.875 2.30761 14.6924 0.125 12 0.125V1.875C13.7259 1.875 15.125 3.27411 15.125 5H16.875ZM12 0.125H11V1.875H12V0.125Z" fill="white"/>
<path d="M5.61872 5.61872C5.96043 5.27701 5.96043 4.72299 5.61872 4.38128C5.27701 4.03957 4.72299 4.03957 4.38128 4.38128L5.61872 5.61872ZM1 9L0.381282 8.38128C0.0395728 8.72299 0.0395728 9.27701 0.381282 9.61872L1 9ZM4.38128 13.6187C4.72299 13.9604 5.27701 13.9604 5.61872 13.6187C5.96043 13.277 5.96043 12.723 5.61872 12.3813L4.38128 13.6187ZM1 8.125C0.516751 8.125 0.125 8.51675 0.125 9C0.125 9.48325 0.516751 9.875 1 9.875V8.125ZM11 0.125C10.5168 0.125 10.125 0.516751 10.125 1C10.125 1.48325 10.5168 1.875 11 1.875V0.125ZM4.38128 4.38128L0.381282 8.38128L1.61872 9.61872L5.61872 5.61872L4.38128 4.38128ZM0.381282 9.61872L4.38128 13.6187L5.61872 12.3813L1.61872 8.38128L0.381282 9.61872ZM1 9.875H12V8.125H1V9.875ZM12 9.875C14.6924 9.875 16.875 7.69239 16.875 5H15.125C15.125 6.72589 13.7259 8.125 12 8.125V9.875ZM16.875 5C16.875 2.30761 14.6924 0.125 12 0.125V1.875C13.7259 1.875 15.125 3.27411 15.125 5H16.875ZM12 0.125H11V1.875H12V0.125Z" fill="white" fill-opacity="0.2"/>
</svg>
