<svg width="360" height="196" viewBox="0 0 360 196" fill="none" xmlns="http://www.w3.org/2000/svg">
<g filter="url(#filter0_d_1_10657)">
<rect x="12.5" y="12" width="335" height="164" rx="24" fill="white"/>
<rect x="13" y="12.5" width="334" height="163" rx="23.5" stroke="#989898" stroke-dasharray="5 5"/>
<path d="M164.5 79.1875V83.0625C164.5 85.2026 166.235 86.9375 168.375 86.9375H191.625C193.765 86.9375 195.5 85.2026 195.5 83.0625V79.1875" stroke="#4B465C" stroke-width="3.39062" stroke-linecap="round" stroke-linejoin="round"/>
<path d="M164.5 79.1875V83.0625C164.5 85.2026 166.235 86.9375 168.375 86.9375H191.625C193.765 86.9375 195.5 85.2026 195.5 83.0625V79.1875" stroke="white" stroke-opacity="0.2" stroke-width="3.39062" stroke-linecap="round" stroke-linejoin="round"/>
<path d="M170.312 63.6875L180 54L189.688 63.6875" stroke="#4B465C" stroke-width="3.39062" stroke-linecap="round" stroke-linejoin="round"/>
<path d="M170.312 63.6875L180 54L189.688 63.6875" stroke="white" stroke-opacity="0.2" stroke-width="3.39062" stroke-linecap="round" stroke-linejoin="round"/>
<path d="M180 54V77.25" stroke="#4B465C" stroke-width="3.39062" stroke-linecap="round" stroke-linejoin="round"/>
<path d="M180 54V77.25" stroke="white" stroke-opacity="0.2" stroke-width="3.39062" stroke-linecap="round" stroke-linejoin="round"/>
<path d="M165.492 111.893C165.492 112.71 165.359 113.419 165.093 114.021C164.827 114.618 164.395 115.08 163.798 115.407C163.205 115.729 162.419 115.89 161.439 115.89C160.454 115.89 159.665 115.727 159.073 115.4C158.48 115.069 158.051 114.6 157.785 113.993C157.523 113.386 157.393 112.663 157.393 111.823V105.628H159.472V111.977C159.472 112.733 159.654 113.286 160.018 113.636C160.382 113.981 160.855 114.154 161.439 114.154C161.826 114.154 162.169 114.079 162.468 113.93C162.766 113.776 163 113.54 163.168 113.223C163.34 112.901 163.427 112.486 163.427 111.977V105.628H165.492V111.893ZM167.265 118.004V108.512H169.316L169.323 109.555C169.43 109.382 169.561 109.226 169.715 109.086C169.873 108.941 170.048 108.815 170.24 108.708C170.431 108.601 170.639 108.519 170.863 108.463C171.087 108.402 171.322 108.372 171.57 108.372C172.106 108.372 172.585 108.505 173.005 108.771C173.425 109.032 173.754 109.438 173.992 109.989C174.234 110.535 174.356 111.23 174.356 112.075C174.356 112.952 174.225 113.673 173.964 114.238C173.707 114.798 173.352 115.213 172.9 115.484C172.447 115.755 171.936 115.89 171.367 115.89C171.133 115.89 170.914 115.857 170.709 115.792C170.503 115.731 170.312 115.645 170.135 115.533C169.962 115.421 169.806 115.293 169.666 115.148C169.53 114.999 169.411 114.838 169.309 114.665V118.004H167.265ZM170.877 114.392C171.32 114.392 171.691 114.208 171.99 113.839C172.293 113.47 172.445 112.887 172.445 112.089C172.445 111.389 172.3 110.843 172.011 110.451C171.726 110.054 171.348 109.856 170.877 109.856C170.349 109.856 169.955 110.071 169.694 110.5C169.437 110.925 169.309 111.454 169.309 112.089C169.309 112.495 169.365 112.873 169.477 113.223C169.593 113.573 169.766 113.855 169.995 114.07C170.228 114.285 170.522 114.392 170.877 114.392ZM178.024 115.876C177.492 115.876 177.07 115.813 176.757 115.687C176.444 115.561 176.213 115.395 176.064 115.19C175.915 114.98 175.819 114.749 175.777 114.497C175.735 114.24 175.714 113.981 175.714 113.72V105.348H177.716V113.468C177.716 113.734 177.772 113.951 177.884 114.119C178.001 114.282 178.218 114.383 178.535 114.42L178.878 114.441V115.701C178.738 115.748 178.596 115.787 178.451 115.82C178.306 115.857 178.164 115.876 178.024 115.876ZM183.293 115.89C182.583 115.89 181.965 115.738 181.438 115.435C180.915 115.132 180.509 114.702 180.22 114.147C179.935 113.592 179.793 112.934 179.793 112.173C179.793 111.412 179.935 110.747 180.22 110.178C180.509 109.609 180.915 109.165 181.438 108.848C181.965 108.531 182.586 108.372 183.3 108.372C184.014 108.372 184.632 108.528 185.155 108.841C185.677 109.149 186.081 109.588 186.366 110.157C186.65 110.726 186.793 111.398 186.793 112.173C186.793 112.901 186.653 113.545 186.373 114.105C186.097 114.66 185.698 115.097 185.176 115.414C184.658 115.731 184.03 115.89 183.293 115.89ZM183.3 114.371C183.659 114.371 183.948 114.266 184.168 114.056C184.387 113.846 184.546 113.571 184.644 113.23C184.746 112.885 184.798 112.509 184.798 112.103C184.798 111.72 184.751 111.359 184.658 111.018C184.569 110.677 184.415 110.402 184.196 110.192C183.976 109.982 183.678 109.877 183.3 109.877C182.94 109.877 182.649 109.977 182.425 110.178C182.205 110.374 182.044 110.642 181.942 110.983C181.839 111.319 181.788 111.692 181.788 112.103C181.788 112.481 181.834 112.845 181.928 113.195C182.021 113.54 182.177 113.823 182.397 114.042C182.616 114.261 182.917 114.371 183.3 114.371ZM190.214 115.89C189.752 115.89 189.337 115.804 188.968 115.631C188.6 115.458 188.308 115.209 188.093 114.882C187.879 114.551 187.771 114.149 187.771 113.678C187.771 112.885 188.068 112.283 188.66 111.872C189.253 111.457 190.189 111.242 191.467 111.228L192.37 111.214V110.78C192.37 110.449 192.272 110.194 192.076 110.017C191.885 109.835 191.586 109.746 191.18 109.751C190.882 109.756 190.597 109.826 190.326 109.961C190.06 110.096 189.878 110.332 189.78 110.668H188.079C188.107 110.145 188.259 109.716 188.534 109.38C188.81 109.039 189.183 108.787 189.654 108.624C190.13 108.456 190.669 108.372 191.271 108.372C192.013 108.372 192.608 108.465 193.056 108.652C193.504 108.834 193.829 109.098 194.029 109.443C194.23 109.784 194.33 110.19 194.33 110.661V115.75H192.622L192.454 114.504C192.207 115.027 191.897 115.388 191.523 115.589C191.155 115.79 190.718 115.89 190.214 115.89ZM190.9 114.546C191.087 114.546 191.267 114.513 191.439 114.448C191.617 114.378 191.773 114.287 191.908 114.175C192.048 114.058 192.16 113.928 192.244 113.783C192.328 113.638 192.37 113.489 192.37 113.335V112.264L191.635 112.278C191.295 112.283 190.977 112.325 190.683 112.404C190.389 112.479 190.151 112.602 189.969 112.775C189.792 112.948 189.703 113.181 189.703 113.475C189.703 113.811 189.82 114.075 190.053 114.266C190.287 114.453 190.569 114.546 190.9 114.546ZM198.828 115.89C197.857 115.89 197.101 115.556 196.56 114.889C196.018 114.217 195.748 113.284 195.748 112.089C195.748 111.333 195.857 110.677 196.077 110.122C196.296 109.567 196.62 109.137 197.05 108.834C197.479 108.526 198.004 108.372 198.625 108.372C198.886 108.372 199.129 108.402 199.353 108.463C199.581 108.519 199.789 108.598 199.976 108.701C200.162 108.804 200.326 108.923 200.466 109.058C200.606 109.193 200.72 109.338 200.809 109.492V105.348H202.86V115.75H201.376L201.145 114.266C201.079 114.467 200.988 114.663 200.872 114.854C200.755 115.045 200.606 115.22 200.424 115.379C200.242 115.533 200.018 115.657 199.752 115.75C199.49 115.843 199.182 115.89 198.828 115.89ZM199.276 114.42C199.789 114.42 200.172 114.24 200.424 113.881C200.68 113.522 200.809 112.915 200.809 112.061C200.804 111.566 200.746 111.156 200.634 110.829C200.522 110.502 200.354 110.26 200.13 110.101C199.91 109.938 199.63 109.856 199.29 109.856C198.846 109.856 198.478 110.026 198.184 110.367C197.89 110.703 197.743 111.268 197.743 112.061C197.743 112.868 197.88 113.463 198.156 113.846C198.431 114.229 198.804 114.42 199.276 114.42Z" fill="black"/>
<path d="M130.491 137.75V126.182H134.683C136.198 126.182 137.321 126.443 138.051 126.966C138.787 127.483 139.155 128.233 139.155 129.214C139.155 129.79 139.009 130.291 138.715 130.718C138.422 131.139 137.899 131.507 137.147 131.822C137.633 131.945 138.025 132.11 138.323 132.318C138.622 132.526 138.851 132.758 139.011 133.014C139.171 133.265 139.281 133.529 139.339 133.806C139.398 134.078 139.427 134.347 139.427 134.614C139.427 135.681 139.065 136.47 138.339 136.982C137.614 137.494 136.459 137.75 134.875 137.75H130.491ZM132.819 135.942H134.923C135.627 135.942 136.158 135.801 136.515 135.518C136.878 135.235 137.059 134.857 137.059 134.382C137.059 134.041 136.971 133.755 136.795 133.526C136.619 133.291 136.379 133.115 136.075 132.998C135.777 132.881 135.435 132.822 135.051 132.822H132.819V135.942ZM132.819 130.966H135.051C135.291 130.966 135.521 130.939 135.739 130.886C135.963 130.827 136.161 130.739 136.331 130.622C136.507 130.505 136.646 130.355 136.747 130.174C136.849 129.987 136.899 129.769 136.899 129.518C136.899 129.017 136.71 128.638 136.331 128.382C135.958 128.121 135.478 127.99 134.891 127.99H132.819V130.966ZM143.178 134.15C143.172 134.571 143.239 134.939 143.378 135.254C143.516 135.563 143.716 135.803 143.978 135.974C144.244 136.139 144.564 136.222 144.938 136.222C145.338 136.222 145.687 136.137 145.986 135.966C146.29 135.795 146.5 135.515 146.618 135.126H148.722C148.631 135.713 148.396 136.214 148.018 136.63C147.644 137.046 147.191 137.363 146.658 137.582C146.124 137.801 145.57 137.91 144.994 137.91C144.178 137.91 143.458 137.739 142.834 137.398C142.215 137.051 141.732 136.563 141.386 135.934C141.039 135.305 140.866 134.563 140.866 133.71C140.866 132.883 141.023 132.139 141.338 131.478C141.652 130.811 142.108 130.286 142.706 129.902C143.308 129.513 144.031 129.318 144.874 129.318C145.716 129.318 146.423 129.497 146.994 129.854C147.57 130.206 148.002 130.699 148.29 131.334C148.583 131.963 148.73 132.691 148.73 133.518V134.15H143.178ZM143.17 132.758H146.546C146.546 132.427 146.484 132.123 146.362 131.846C146.239 131.569 146.052 131.35 145.802 131.19C145.556 131.03 145.247 130.95 144.874 130.95C144.511 130.95 144.202 131.038 143.946 131.214C143.695 131.385 143.503 131.609 143.37 131.886C143.236 132.163 143.17 132.454 143.17 132.758ZM155.165 129.478V131.102H153.421V137.75H151.085V131.102H149.557V129.478H151.085V128.286C151.085 127.619 151.28 127.102 151.669 126.734C152.064 126.366 152.621 126.182 153.341 126.182H155.237L155.245 127.734H154.157C153.859 127.734 153.653 127.809 153.541 127.958C153.435 128.102 153.381 128.342 153.381 128.678V129.478H155.165ZM160.044 137.91C159.234 137.91 158.527 137.737 157.924 137.39C157.327 137.043 156.863 136.553 156.532 135.918C156.207 135.283 156.044 134.531 156.044 133.662C156.044 132.793 156.207 132.033 156.532 131.382C156.863 130.731 157.327 130.225 157.924 129.862C158.527 129.499 159.236 129.318 160.052 129.318C160.868 129.318 161.575 129.497 162.172 129.854C162.77 130.206 163.231 130.707 163.556 131.358C163.882 132.009 164.044 132.777 164.044 133.662C164.044 134.494 163.884 135.23 163.564 135.87C163.25 136.505 162.794 137.003 162.196 137.366C161.604 137.729 160.887 137.91 160.044 137.91ZM160.052 136.174C160.463 136.174 160.794 136.054 161.044 135.814C161.295 135.574 161.476 135.259 161.588 134.87C161.706 134.475 161.764 134.046 161.764 133.582C161.764 133.145 161.711 132.731 161.604 132.342C161.503 131.953 161.327 131.638 161.076 131.398C160.826 131.158 160.484 131.038 160.052 131.038C159.642 131.038 159.308 131.153 159.052 131.382C158.802 131.606 158.618 131.913 158.5 132.302C158.383 132.686 158.324 133.113 158.324 133.582C158.324 134.014 158.378 134.43 158.484 134.83C158.591 135.225 158.77 135.547 159.02 135.798C159.271 136.049 159.615 136.174 160.052 136.174ZM165.602 137.75V129.478H167.85V131.438C167.983 131.017 168.17 130.649 168.41 130.334C168.655 130.014 168.951 129.766 169.298 129.59C169.644 129.409 170.036 129.318 170.474 129.318C170.548 129.318 170.618 129.323 170.682 129.334C170.751 129.339 170.802 129.35 170.834 129.366V131.59C170.786 131.569 170.727 131.555 170.658 131.55C170.594 131.545 170.535 131.539 170.482 131.534C170.023 131.497 169.631 131.51 169.306 131.574C168.98 131.638 168.716 131.747 168.514 131.902C168.311 132.057 168.164 132.246 168.074 132.47C167.983 132.694 167.938 132.945 167.938 133.222V137.75H165.602ZM173.99 134.15C173.985 134.571 174.052 134.939 174.19 135.254C174.329 135.563 174.529 135.803 174.79 135.974C175.057 136.139 175.377 136.222 175.75 136.222C176.15 136.222 176.5 136.137 176.798 135.966C177.102 135.795 177.313 135.515 177.43 135.126H179.534C179.444 135.713 179.209 136.214 178.83 136.63C178.457 137.046 178.004 137.363 177.47 137.582C176.937 137.801 176.382 137.91 175.806 137.91C174.99 137.91 174.27 137.739 173.646 137.398C173.028 137.051 172.545 136.563 172.198 135.934C171.852 135.305 171.678 134.563 171.678 133.71C171.678 132.883 171.836 132.139 172.15 131.478C172.465 130.811 172.921 130.286 173.518 129.902C174.121 129.513 174.844 129.318 175.686 129.318C176.529 129.318 177.236 129.497 177.806 129.854C178.382 130.206 178.814 130.699 179.102 131.334C179.396 131.963 179.542 132.691 179.542 133.518V134.15H173.99ZM173.982 132.758H177.358C177.358 132.427 177.297 132.123 177.174 131.846C177.052 131.569 176.865 131.35 176.614 131.19C176.369 131.03 176.06 130.95 175.686 130.95C175.324 130.95 175.014 131.038 174.758 131.214C174.508 131.385 174.316 131.609 174.182 131.886C174.049 132.163 173.982 132.454 173.982 132.758Z" fill="#4082CB"/>
<path d="M184.804 126.182H187.132V137.75H184.804V126.182ZM189.43 137.75V129.478H191.718V130.646C191.968 130.283 192.304 129.971 192.726 129.71C193.152 129.449 193.688 129.318 194.334 129.318C194.616 129.318 194.904 129.369 195.198 129.47C195.491 129.571 195.766 129.721 196.022 129.918C196.283 130.11 196.494 130.353 196.654 130.646C196.92 130.267 197.27 129.953 197.702 129.702C198.139 129.446 198.624 129.318 199.158 129.318C199.467 129.318 199.779 129.369 200.094 129.47C200.414 129.571 200.707 129.737 200.974 129.966C201.24 130.195 201.454 130.502 201.614 130.886C201.779 131.265 201.862 131.734 201.862 132.294V137.75H199.526V132.582C199.526 132.251 199.459 131.987 199.326 131.79C199.198 131.587 199.032 131.443 198.83 131.358C198.632 131.267 198.422 131.222 198.198 131.222C197.99 131.222 197.779 131.265 197.566 131.35C197.352 131.43 197.171 131.561 197.022 131.742C196.872 131.923 196.798 132.161 196.798 132.454V137.75H194.47V132.374C194.47 132.123 194.403 131.913 194.27 131.742C194.136 131.571 193.968 131.443 193.766 131.358C193.568 131.267 193.366 131.222 193.158 131.222C192.944 131.222 192.731 131.267 192.518 131.358C192.304 131.443 192.126 131.579 191.982 131.766C191.838 131.947 191.766 132.177 191.766 132.454V137.75H189.43ZM206.095 137.91C205.567 137.91 205.093 137.811 204.671 137.614C204.25 137.417 203.917 137.131 203.671 136.758C203.426 136.379 203.303 135.921 203.303 135.382C203.303 134.475 203.642 133.787 204.319 133.318C204.997 132.843 206.066 132.598 207.527 132.582L208.559 132.566V132.07C208.559 131.691 208.447 131.401 208.223 131.198C208.005 130.99 207.663 130.889 207.199 130.894C206.858 130.899 206.533 130.979 206.223 131.134C205.919 131.289 205.711 131.558 205.599 131.942H203.655C203.687 131.345 203.861 130.854 204.175 130.47C204.49 130.081 204.917 129.793 205.455 129.606C205.999 129.414 206.615 129.318 207.303 129.318C208.151 129.318 208.831 129.425 209.343 129.638C209.855 129.846 210.226 130.147 210.455 130.542C210.685 130.931 210.799 131.395 210.799 131.934V137.75H208.847L208.655 136.326C208.373 136.923 208.018 137.337 207.591 137.566C207.17 137.795 206.671 137.91 206.095 137.91ZM206.879 136.374C207.093 136.374 207.298 136.337 207.495 136.262C207.698 136.182 207.877 136.078 208.031 135.95C208.191 135.817 208.319 135.667 208.415 135.502C208.511 135.337 208.559 135.166 208.559 134.99V133.766L207.719 133.782C207.33 133.787 206.967 133.835 206.631 133.926C206.295 134.011 206.023 134.153 205.815 134.35C205.613 134.547 205.511 134.814 205.511 135.15C205.511 135.534 205.645 135.835 205.911 136.054C206.178 136.267 206.501 136.374 206.879 136.374ZM216.699 140.486C215.227 140.486 214.107 140.299 213.339 139.926C212.577 139.553 212.195 139.062 212.195 138.454C212.195 138.171 212.27 137.934 212.419 137.742C212.569 137.55 212.742 137.398 212.939 137.286C213.142 137.169 213.326 137.081 213.491 137.022C213.662 136.958 213.766 136.915 213.803 136.894C213.718 136.846 213.595 136.777 213.435 136.686C213.275 136.59 213.126 136.462 212.987 136.302C212.854 136.137 212.787 135.923 212.787 135.662C212.787 135.369 212.926 135.097 213.203 134.846C213.486 134.595 213.913 134.422 214.483 134.326C213.939 134.07 213.526 133.723 213.243 133.286C212.961 132.849 212.819 132.401 212.819 131.942C212.819 131.398 212.99 130.931 213.331 130.542C213.673 130.153 214.137 129.857 214.723 129.654C215.315 129.451 215.985 129.35 216.731 129.35C217.302 129.35 217.769 129.411 218.131 129.534C218.494 129.651 218.83 129.806 219.139 129.998C219.262 129.95 219.425 129.889 219.627 129.814C219.83 129.734 220.049 129.649 220.283 129.558C220.518 129.462 220.747 129.369 220.971 129.278C221.195 129.182 221.395 129.097 221.571 129.022L221.563 130.83L220.131 131.062C220.19 131.206 220.235 131.361 220.267 131.526C220.299 131.691 220.315 131.827 220.315 131.934C220.315 132.414 220.174 132.862 219.891 133.278C219.614 133.694 219.195 134.03 218.635 134.286C218.081 134.542 217.393 134.67 216.571 134.67C216.47 134.67 216.334 134.667 216.163 134.662C215.998 134.657 215.862 134.649 215.755 134.638C215.441 134.654 215.225 134.694 215.107 134.758C214.99 134.822 214.931 134.897 214.931 134.982C214.931 135.11 215.051 135.195 215.291 135.238C215.531 135.275 215.894 135.31 216.379 135.342C216.55 135.353 216.787 135.366 217.091 135.382C217.395 135.398 217.731 135.419 218.099 135.446C219.113 135.515 219.867 135.766 220.363 136.198C220.865 136.625 221.115 137.163 221.115 137.814C221.115 138.587 220.747 139.225 220.011 139.726C219.281 140.233 218.177 140.486 216.699 140.486ZM217.075 139.182C217.726 139.182 218.19 139.102 218.467 138.942C218.745 138.782 218.883 138.553 218.883 138.254C218.883 138.003 218.777 137.801 218.563 137.646C218.35 137.486 218.038 137.393 217.627 137.366L215.731 137.238C215.486 137.227 215.267 137.265 215.075 137.35C214.889 137.435 214.742 137.553 214.635 137.702C214.534 137.851 214.483 138.011 214.483 138.182C214.483 138.529 214.694 138.782 215.115 138.942C215.537 139.102 216.19 139.182 217.075 139.182ZM216.635 133.366C217.078 133.366 217.433 133.246 217.699 133.006C217.971 132.761 218.107 132.43 218.107 132.014C218.107 131.582 217.971 131.235 217.699 130.974C217.433 130.713 217.078 130.582 216.635 130.582C216.198 130.582 215.841 130.713 215.563 130.974C215.291 131.235 215.155 131.582 215.155 132.014C215.155 132.425 215.286 132.753 215.547 132.998C215.814 133.243 216.177 133.366 216.635 133.366ZM224.631 134.15C224.626 134.571 224.692 134.939 224.831 135.254C224.97 135.563 225.17 135.803 225.431 135.974C225.698 136.139 226.018 136.222 226.391 136.222C226.791 136.222 227.14 136.137 227.439 135.966C227.743 135.795 227.954 135.515 228.071 135.126H230.175C230.084 135.713 229.85 136.214 229.471 136.63C229.098 137.046 228.644 137.363 228.111 137.582C227.578 137.801 227.023 137.91 226.447 137.91C225.631 137.91 224.911 137.739 224.287 137.398C223.668 137.051 223.186 136.563 222.839 135.934C222.492 135.305 222.319 134.563 222.319 133.71C222.319 132.883 222.476 132.139 222.791 131.478C223.106 130.811 223.562 130.286 224.159 129.902C224.762 129.513 225.484 129.318 226.327 129.318C227.17 129.318 227.876 129.497 228.447 129.854C229.023 130.206 229.455 130.699 229.743 131.334C230.036 131.963 230.183 132.691 230.183 133.518V134.15H224.631ZM224.623 132.758H227.999C227.999 132.427 227.938 132.123 227.815 131.846C227.692 131.569 227.506 131.35 227.255 131.19C227.01 131.03 226.7 130.95 226.327 130.95C225.964 130.95 225.655 131.038 225.399 131.214C225.148 131.385 224.956 131.609 224.823 131.886C224.69 132.163 224.623 132.454 224.623 132.758Z" fill="black"/>
</g>
<defs>
<filter id="filter0_d_1_10657" x="-3.5" y="0" width="367" height="196" filterUnits="userSpaceOnUse" color-interpolation-filters="sRGB">
<feFlood flood-opacity="0" result="BackgroundImageFix"/>
<feColorMatrix in="SourceAlpha" type="matrix" values="0 0 0 0 0 0 0 0 0 0 0 0 0 0 0 0 0 0 127 0" result="hardAlpha"/>
<feOffset dy="4"/>
<feGaussianBlur stdDeviation="8"/>
<feComposite in2="hardAlpha" operator="out"/>
<feColorMatrix type="matrix" values="0 0 0 0 0 0 0 0 0 0 0 0 0 0 0 0 0 0 0.04 0"/>
<feBlend mode="normal" in2="BackgroundImageFix" result="effect1_dropShadow_1_10657"/>
<feBlend mode="normal" in="SourceGraphic" in2="effect1_dropShadow_1_10657" result="shape"/>
</filter>
</defs>
</svg>
